<svg height="34" viewBox="0 0 34 34" width="34" xmlns="http://www.w3.org/2000/svg"><g fill="none"><path d="m3 0h28c1.6568542 0 3 1.34314575 3 3v28c0 1.6568542-1.3431458 3-3 3h-28c-1.65685425 0-3-1.3431458-3-3v-28c0-1.65685425 1.34314575-3 3-3z" fill="#f7df1e"/><path d="m22.84 26.563c.684 1.118 1.575 1.94 3.151 1.94 1.324 0 2.17-.662 2.17-1.576 0-1.096-.87-1.484-2.326-2.121l-.8-.343c-2.305-.982-3.836-2.212-3.836-4.814 0-2.396 1.825-4.22 4.679-4.22 2.031 0 3.492.707 4.544 2.558l-2.488 1.598c-.548-.983-1.139-1.37-2.056-1.37-.936 0-1.53.594-1.53 1.37 0 .958.595 1.346 1.965 1.94l.799.342c2.715 1.164 4.247 2.35 4.247 5.019 0 2.876-2.26 4.452-5.294 4.452-2.967 0-4.884-1.414-5.822-3.267l2.596-1.508zm-11.287.276c.502.891.958 1.644 2.056 1.644 1.05 0 1.712-.41 1.712-2.008v-10.864h3.195v10.907c0 3.309-1.94 4.814-4.77 4.814-2.559 0-4.04-1.323-4.794-2.918z" fill="#000"/></g></svg>