<svg height="68" viewBox="0 0 68 68" width="68" xmlns="http://www.w3.org/2000/svg" xmlns:xlink="http://www.w3.org/1999/xlink"><linearGradient id="a" x1="100%" x2="35.182%" y1="90.013%" y2="17.616%"><stop offset="0" stop-color="#ff16b8"/><stop offset="1" stop-color="#ff16b8"/></linearGradient><linearGradient id="b" x1="0%" x2="100%" y1="0%" y2="100%"><stop offset="0" stop-color="#ff16b8"/><stop offset="1" stop-color="#ff16b8" stop-opacity=".461"/></linearGradient><g fill="none" fill-rule="evenodd" transform="translate(0 1)"><path d="m55.7397015.392h-11.6351045v33.165c0 11.752-9.682388 21.292-21.609791 21.292-11.1783881 0-20.36244779-8.353-21.48394033-19.08 1.32955224 16.869 15.66638803 30.135 33.12005973 30.135 18.3681194 0 33.2448955-14.658 33.2448955-32.756v-21.291c.0051297-3.04225368-1.2191677-5.96135883-3.4024764-8.11256001s-5.1459826-3.35749424-8.233643-3.35243999z" fill="url(#a)"/><path d="m44.104597 33.312v.655c0 .082 0 .164-.0416119.246 0 .081 0 .163-.041612.245 0 .082-.0416119.164-.0416119.246s-.040597.164-.040597.246c0 .081-.0426269.163-.0426269.245s-.040597.164-.040597.246-.0426269.164-.0426269.246c-.040597.082-.040597.163-.0832238.245-.0405971.082-.0405971.164-.0832239.246-.040597.082-.040597.164-.082209.246-.0416119.082-.0416119.163-.0832239.204-.0416119.082-.0416119.164-.0832238.246-.041612.082-.041612.164-.0832239.205-.0385979.0631955-.0666937.1320646-.0832239.204-.0416119.082-.0832239.123-.0832239.205-.040597.082-.0832239.164-.1248358.205-.040597.082-.0832239.123-.1248358.205-.040597.082-.082209.122-.1238209.204-.041612.082-.0832239.123-.1248358.205-.041612.082-.0832239.123-.1248359.205-.0416119.082-.0832238.123-.1248358.205-.040597.081-.0832239.122-.1248358.204-.040597.082-.0832239.123-.1248358.205-.040597.082-.082209.123-.1654329.205-.0416119.04-.0832238.123-.1664477.164-.041612.081-.1248358.122-.1664478.163-.040597.041-.0832239.123-.1664477.164l-.1654329.164-.1664477.164-.1664478.163-.1664478.164-.1664477.164c-.040597.04-.1238209.082-.1654329.164-.0832238.04-.1248358.082-.2080597.164-.0416119.04-.1248358.081-.1664477.122-.0832239.041-.1248358.082-.2080597.123-.040597.041-.1238209.082-.1654329.123-.0832238.041-.1248358.082-.2080597.123-.0832238.04-.1248358.082-.2080597.123-.0832238.04-.1248358.082-.2080597.123-.0822089.04-.1238209.081-.2070447.122-.0832239.041-.1664478.082-.2080597.123-.0832239.041-.1248359.082-.2080597.082l-.2486568.123c-.0832238.04-.1248358.082-.2080597.082-.0759062.0454853-.1612481.0735142-.2496716.082-.0832239.04-.1248358.04-.2080597.082-.082209.04-.1654328.04-.2486567.081s-.1248358.041-.2080597.082-.1664478.041-.2496717.082c-.0822089.041-.1654328.041-.2070447.082-.0832239.041-.1664478.041-.2496717.041s-.1248358.041-.2080597.041-.2070448.041-.2902686.041c-.0832239 0-.1248359.04-.2080597.04-.0832239 0-.2080597.042-.2912836.042s-.1248358 0-.2070448.04c-.1248358 0-.2496716 0-.3328955.042h-.6647761c-2.6471661.0063934-5.1877804-1.026895-7.0596151-2.8712028-1.8718348-1.8443077-2.9205454-4.34756-2.9140566-6.9557972v-21.332c-.0822089-6.347-5.2776119-11.465-11.7183283-11.465h-11.63611945v32.879c0 .86.04059702 1.679.12483582 2.498 1.12149254 10.727 10.30555223 19.08 21.48394033 19.08 11.927403 0 21.609791-9.54 21.609791-21.292z" fill="url(#b)"/></g></svg>